<svg version="1.1" id="Layer_1" xmlns="http://www.w3.org/2000/svg" xmlns:xlink="http://www.w3.org/1999/xlink" x="0px" y="0px"
	 width="100%" viewBox="0 0 1024 1024" enable-background="new 0 0 1024 1024" xml:space="preserve">
<path fill="#000000" opacity="1.000000" stroke="none" 
	d="
M729.995605,673.322144 
	C669.331726,673.321594 609.166626,673.321594 549.098572,673.321594 
	C548.885864,670.247375 550.955261,670.750671 551.269287,669.424438 
	C548.685059,668.386169 547.190857,666.411377 546.035034,663.858398 
	C543.205811,657.609375 535.216980,655.298279 529.390930,658.825256 
	C527.113464,660.203979 527.113464,660.203979 522.006714,657.579956 
	C524.612000,662.341797 524.774170,666.452454 520.441895,669.483521 
	C520.751770,670.727966 522.299927,670.836304 522.012390,672.373718 
	C521.557434,672.587891 520.988281,673.082031 520.409668,673.093445 
	C514.249084,673.215088 508.087006,673.272644 501.925140,673.316833 
	C500.553253,673.326721 499.349884,672.946106 498.408936,671.785156 
	C495.163940,667.781677 494.803223,659.086182 497.551666,654.512512 
	C527.668762,604.394104 559.264160,555.195618 590.177856,505.573029 
	C618.009155,460.898438 645.832581,416.218964 673.632812,371.525024 
	C674.653503,369.884094 676.424500,368.218872 675.377014,366.093689 
	C674.187317,363.679962 671.638916,364.318573 669.556335,364.315765 
	C647.062805,364.285431 624.562805,363.975983 602.077576,364.413727 
	C580.790344,364.828156 561.241882,370.647675 545.808594,386.280304 
	C533.976685,398.265015 527.385071,413.031067 524.298889,429.442749 
	C523.104736,435.793396 519.317261,438.029236 513.249084,435.899597 
	C510.528809,434.945007 510.535736,432.815613 510.681152,430.610474 
	C511.382050,419.982544 512.059326,409.352417 512.867859,398.732452 
	C513.903931,385.123383 514.953857,371.513794 516.201172,357.923065 
	C516.892151,350.393707 517.323486,350.064911 525.170776,350.106659 
	C541.493408,350.193512 557.848694,351.178314 574.129333,350.440918 
	C598.119812,349.354309 622.083374,351.391174 646.053772,350.177979 
	C651.187073,349.918182 656.363281,350.646088 661.522400,350.710938 
	C664.821472,350.752441 666.928772,353.387360 669.429321,354.688782 
	C673.689758,356.906097 677.933228,357.455505 682.317078,357.705872 
	C687.424255,357.997528 690.962585,359.999390 692.468994,364.935455 
	C693.207642,367.355957 694.488098,368.880829 696.921875,369.760925 
	C698.428650,370.305725 699.837524,371.401550 701.012024,372.537720 
	C706.809692,378.146301 715.571960,378.413910 721.863464,373.002289 
	C722.623779,372.348297 723.257690,371.289673 724.321472,371.620453 
	C726.403992,372.268066 728.390137,373.284912 730.202087,371.090454 
	C732.888367,367.837158 736.395630,363.635559 735.688354,360.283325 
	C734.689758,355.550446 736.964539,353.678162 739.324707,351.106262 
	C743.753357,353.864624 745.389343,361.648376 742.292542,366.717621 
	C732.745300,382.345825 723.077026,397.900146 713.447754,413.478271 
	C679.377563,468.596375 644.978210,523.508057 610.201965,578.183777 
	C594.736877,602.498169 579.346802,626.860291 563.936646,651.209595 
	C562.883972,652.872864 561.656921,654.486816 561.508850,656.474670 
	C562.911316,658.503113 564.912109,657.956421 566.643250,657.952637 
	C596.967773,657.885620 627.302734,658.232117 657.614075,657.544373 
	C699.198303,656.600891 730.900513,631.230774 742.676880,590.526855 
	C743.634460,587.217041 743.966980,583.622375 748.993835,583.670166 
	C756.689697,583.743408 758.042175,585.140564 757.026062,592.805603 
	C753.748108,617.533630 750.449890,642.259888 747.394470,667.015747 
	C746.836060,671.539490 745.169617,673.675110 740.489319,673.362732 
	C737.171570,673.141296 733.826965,673.321716 729.995605,673.322144 
M647.117310,490.050507 
	C643.692017,489.085876 640.245422,489.366455 636.725159,489.465149 
	C626.127258,489.762390 615.502197,494.691681 604.772339,488.716125 
	C596.030212,502.846375 587.584473,516.497620 578.589294,531.036926 
	C584.966858,532.077271 590.062683,533.612549 593.920410,537.485352 
	C598.019470,541.600403 603.162476,542.657227 608.572021,542.528687 
	C612.561218,542.433960 616.504211,542.333069 620.507202,542.608643 
	C625.398132,542.945312 629.409363,541.245605 632.191772,536.581787 
	C638.591980,525.853760 645.362732,515.346558 652.007385,504.764984 
	C657.512939,495.997498 657.421753,495.590149 648.339050,490.466827 
	C648.195129,490.385620 648.031250,490.339905 647.117310,490.050507 
z"/>
<path fill="#000000" opacity="1.000000" stroke="none" 
	d="
M289.875549,536.000000 
	C289.867981,486.505371 289.828461,437.510681 289.893463,388.516144 
	C289.903625,380.871918 288.633759,373.877136 282.291962,368.795532 
	C277.673309,365.094666 272.025177,364.169708 266.418030,363.370667 
	C262.306213,362.784698 258.141602,362.429688 253.990326,362.300995 
	C250.171219,362.182617 248.679520,360.475739 248.692520,356.718323 
	C248.704788,353.172211 249.065628,350.425781 253.614792,350.422943 
	C260.600830,350.418640 267.587952,350.011688 274.572479,350.063141 
	C301.395782,350.260620 328.222412,350.189758 355.044037,350.307281 
	C377.021576,350.403595 399.024628,350.124908 421.015961,349.995605 
	C437.665710,349.897705 454.316467,349.908722 470.966492,349.963379 
	C477.649078,349.985321 478.711853,351.077393 479.205231,357.761383 
	C480.834686,379.835327 482.447937,401.910400 484.047333,423.986511 
	C484.179688,425.812775 484.190521,427.649689 484.207947,429.482117 
	C484.279480,437.000244 483.778320,437.232971 476.410950,437.443268 
	C471.909485,437.571777 470.632141,435.176758 470.030090,431.527924 
	C468.335846,421.259155 465.049347,411.508636 460.221649,402.299103 
	C448.478302,379.896851 429.212982,368.599487 404.769745,365.421295 
	C387.196899,363.136414 369.484161,364.641693 351.839478,364.201935 
	C347.506104,364.093933 345.911285,366.266144 345.917480,370.340393 
	C345.979034,410.835358 346.027985,451.330444 345.987488,491.825409 
	C345.983276,496.024780 347.596466,498.050751 351.855499,497.927032 
	C354.804810,497.841370 357.758636,497.910553 360.721466,498.356995 
	C355.785461,499.193146 350.768738,498.820770 345.897003,500.081238 
	C343.954193,500.583923 342.410339,499.745270 341.344696,497.872681 
	C338.163086,492.281860 333.217957,488.273071 328.594086,483.988739 
	C324.712372,480.392059 320.029388,479.945526 315.551788,481.977203 
	C309.670227,484.645905 304.002899,487.862762 298.500702,491.260437 
	C295.625427,493.035980 293.998352,495.901978 294.092255,499.695587 
	C294.269531,506.855988 294.211548,514.029602 293.987061,521.189453 
	C293.871002,524.890503 295.163422,528.123840 297.989166,529.881165 
	C307.426453,535.750122 317.344879,540.443970 328.972198,537.201355 
	C336.046875,535.228394 341.596893,527.907410 341.800323,520.567261 
	C341.874176,517.902405 341.913116,515.234497 341.878967,512.569153 
	C341.826019,508.435547 344.155823,506.674438 347.898865,507.135742 
	C358.870728,508.487976 369.872101,507.445221 380.851624,507.826691 
	C394.830780,508.312408 406.968018,512.812195 415.899963,524.059143 
	C419.873871,529.062927 425.104279,529.453430 430.783203,528.920898 
	C433.170197,528.697083 433.824341,527.209167 433.829498,525.159668 
	C433.853821,515.495117 434.121307,505.821228 433.773651,496.169708 
	C433.588348,491.026062 429.998962,488.041229 425.328064,486.093994 
	C421.070770,484.319183 417.818176,484.347382 414.247803,488.048309 
	C408.080933,494.440735 400.170837,497.678711 391.070129,498.595184 
	C391.510162,496.351959 393.193542,496.648956 394.278687,496.338562 
	C411.740234,491.343384 421.041290,479.212189 424.533905,461.957886 
	C424.929993,460.001190 425.243652,458.025940 425.535797,456.050476 
	C426.424774,450.039551 429.027802,448.350830 435.004730,449.757172 
	C436.743622,450.166321 437.600830,451.191284 437.861206,452.779510 
	C438.075500,454.086639 438.139648,455.431000 438.139313,456.758820 
	C438.130707,490.588654 438.124115,524.418518 438.065552,558.248291 
	C438.053619,565.138855 437.445190,565.353027 430.586334,565.468384 
	C426.071991,565.544250 425.306274,562.872070 424.980072,559.521851 
	C424.265259,552.180908 422.558197,545.100952 419.779083,538.266296 
	C412.983978,521.554810 399.548645,512.344360 381.453857,512.177307 
	C371.789001,512.088074 362.120789,512.285950 352.457611,512.132019 
	C347.960236,512.060425 346.121338,513.986694 346.130005,518.387085 
	C346.210022,559.047913 346.092224,599.709778 346.349304,640.369385 
	C346.428864,652.952881 354.572571,659.702026 369.492645,660.655762 
	C373.814362,660.931946 378.146484,661.046448 382.473938,661.232239 
	C387.326996,661.440613 387.174408,664.869202 387.215393,668.358887 
	C387.257996,671.986938 385.633698,673.369568 382.052856,673.364990 
	C339.223694,673.310669 296.394440,673.315918 253.565231,673.358887 
	C249.939407,673.362488 247.946915,672.191956 247.921906,668.199463 
	C247.897278,664.269165 248.465622,661.278076 253.322403,661.034851 
	C259.791870,660.710938 266.266083,660.647766 272.631561,658.900574 
	C284.211761,655.721924 289.585724,649.533081 289.657959,637.484192 
	C289.859741,603.823547 289.821472,570.161499 289.875549,536.000000 
z"/>
</svg>