<?xml version="1.0" encoding="UTF-8"?>
<!-- Generator: https://ezgif.com/png-to-svg -->
<svg version="1.1" xmlns="http://www.w3.org/2000/svg" width="500" height="500">
<path d="M0 0 C1.36 -0.01 2.73 -0.01 4.09 -0.02 C7.78 -0.04 11.46 -0.04 15.15 -0.03 C18.24 -0.03 21.32 -0.03 24.41 -0.04 C31.7 -0.05 38.98 -0.05 46.27 -0.04 C53.76 -0.03 61.26 -0.04 68.75 -0.07 C75.21 -0.09 81.66 -0.1 88.12 -0.09 C91.97 -0.09 95.81 -0.09 99.66 -0.11 C103.28 -0.13 106.9 -0.12 110.52 -0.1 C112.47 -0.1 114.41 -0.11 116.36 -0.13 C124.26 -0.06 131.96 0.63 138.22 5.95 C142.76 10.66 145.36 16.81 148.15 22.65 C149.2 24.81 150.25 26.96 151.31 29.12 C151.83 30.18 152.35 31.25 152.88 32.34 C155.03 36.68 157.3 40.95 159.59 45.22 C163.28 52.15 166.69 59.17 170.01 66.29 C172.99 72.64 176.19 78.86 179.53 85.04 C181.88 89.42 184.09 93.83 186.16 98.35 C186.63 99.35 187.1 100.34 187.58 101.37 C188.48 103.3 189.35 105.24 190.21 107.2 C190.83 108.52 190.83 108.52 191.47 109.87 C191.82 110.65 192.17 111.43 192.53 112.23 C197.26 117.72 205.88 119.32 212.64 121.25 C213.5 121.5 214.37 121.76 215.26 122.02 C217.12 122.56 218.97 123.1 220.83 123.63 C223.75 124.48 226.67 125.33 229.59 126.19 C237.34 128.47 245.09 130.74 252.85 132.99 C257.01 134.19 261.17 135.42 265.33 136.66 C266.86 137.11 268.39 137.55 269.92 137.99 C288.47 143.31 288.47 143.31 293.9 152.09 C296.32 157.74 296.47 163.85 294.7 169.71 C292.21 175.25 288.6 178.9 283.05 181.51 C270.99 185.59 258.08 180.08 246.59 176.47 C244.56 175.84 242.53 175.22 240.5 174.6 C237.27 173.6 234.04 172.61 230.81 171.61 C222.88 169.15 214.92 166.77 206.95 164.44 C202.46 163.12 197.97 161.79 193.48 160.46 C190.97 159.71 188.46 158.98 185.95 158.25 C182.43 157.22 178.91 156.17 175.39 155.12 C173.8 154.67 173.8 154.67 172.19 154.2 C165.05 152.03 162.26 149.85 158.68 143.22 C158.08 142 157.49 140.76 156.9 139.53 C153.18 131.9 149.28 124.38 145.31 116.88 C139.5 105.81 134 94.6 128.4 83.4 C128.07 124.98 127.74 166.56 127.4 209.4 C138.62 210.39 149.84 211.38 161.4 212.4 C170.33 213.24 179.27 214.08 188.19 214.97 C190.71 215.22 193.22 215.47 195.73 215.7 C199.47 216.06 203.2 216.43 206.93 216.81 C208.04 216.91 209.15 217.01 210.3 217.11 C221.13 218.25 229.93 221.25 237.4 229.4 C242.68 235.99 244.77 242.93 244.34 251.34 C243.09 260.36 238.84 267 231.84 272.72 C226.33 276.52 220.79 278.31 214.18 279.17 C204.14 280.65 194.26 282.9 184.34 285.03 C180.63 285.83 176.92 286.62 173.2 287.41 C166 288.95 158.79 290.49 151.59 292.04 C141.78 294.14 131.96 296.24 122.15 298.33 C118.5 299.11 114.85 299.9 111.2 300.68 C108.96 301.16 106.72 301.64 104.47 302.12 C103.47 302.34 102.46 302.55 101.42 302.78 C96.09 303.91 90.82 304.82 85.4 305.4 C86.34 302.53 87.28 299.69 88.46 296.9 C92.4 286.4 90.69 275.49 86.4 265.4 C81.7 256.91 75.98 250.6 66.47 247.84 C64.11 247.26 61.75 246.72 59.38 246.2 C58.44 245.99 57.51 245.78 56.54 245.57 C42.36 242.46 28.09 239.73 13.82 236.99 C9.62 236.18 5.42 235.36 1.22 234.54 C-2.04 233.9 -5.31 233.27 -8.57 232.65 C-10.13 232.35 -11.68 232.04 -13.23 231.74 C-15.38 231.32 -17.53 230.9 -19.68 230.5 C-20.9 230.26 -22.12 230.02 -23.38 229.78 C-26.5 229.42 -28.62 229.46 -31.6 230.4 C-32.26 231.06 -32.92 231.72 -33.6 232.4 C-33.28 236 -33.28 236 -32.6 239.4 C-22.29 242.11 -11.97 244.41 -1.48 246.33 C0.91 246.77 3.29 247.21 5.68 247.65 C11.59 248.76 17.5 249.85 23.41 250.94 C28.44 251.87 33.48 252.8 38.51 253.74 C40.84 254.18 43.17 254.61 45.51 255.03 C67.03 259.02 67.03 259.02 74.4 267.4 C78.93 274.3 80.52 281.61 78.94 289.79 C76.71 298.34 72.44 304.34 65.31 309.49 C60.48 311.8 56.12 311.41 51.04 310.29 C49.15 309.88 49.15 309.88 47.22 309.46 C45.85 309.15 44.47 308.84 43.09 308.53 C41.63 308.21 40.17 307.89 38.71 307.57 C35.57 306.89 32.44 306.19 29.31 305.5 C24.36 304.39 19.41 303.31 14.46 302.22 C9.32 301.1 4.18 299.97 -0.96 298.84 C-17.51 295.2 -34.06 291.62 -50.63 288.07 C-54.35 287.27 -58.08 286.46 -61.81 285.66 C-81.1 281.47 -81.1 281.47 -100.54 278 C-104.74 277.18 -108.11 275.86 -111.6 273.4 C-112.52 272.79 -112.52 272.79 -113.45 272.17 C-119.46 267.63 -123.18 260.79 -124.6 253.4 C-125.52 243.94 -123.77 236 -117.73 228.53 C-108.14 218.35 -95.49 217.68 -82.41 216.4 C-80.73 216.22 -79.05 216.05 -77.37 215.88 C-73.87 215.52 -70.36 215.16 -66.85 214.81 C-62.39 214.37 -57.94 213.92 -53.49 213.46 C-49.19 213.02 -44.89 212.58 -40.59 212.15 C-39.79 212.06 -39 211.98 -38.17 211.9 C-35.86 211.67 -33.54 211.43 -31.23 211.2 C-29.92 211.07 -28.61 210.94 -27.27 210.81 C-20.72 210.24 -14.16 209.84 -7.6 209.4 C-7.93 163.2 -8.26 117 -8.6 69.4 C-19.4 90.16 -19.4 90.16 -29.93 111.04 C-34.67 120.62 -39.45 130.18 -44.41 139.65 C-44.8 140.4 -45.19 141.15 -45.6 141.93 C-46.57 143.77 -47.58 145.59 -48.6 147.4 C-48.96 148.08 -49.33 148.75 -49.7 149.44 C-52.57 152.4 -56.09 153.15 -59.95 154.26 C-60.82 154.52 -61.68 154.78 -62.57 155.05 C-65.45 155.91 -68.34 156.75 -71.23 157.59 C-73.26 158.19 -75.29 158.79 -77.32 159.4 C-80.57 160.36 -83.82 161.32 -87.07 162.28 C-95.04 164.63 -103 167.05 -110.94 169.51 C-115.42 170.89 -119.91 172.25 -124.39 173.62 C-126.89 174.39 -129.39 175.16 -131.88 175.94 C-135.41 177.03 -138.94 178.11 -142.48 179.18 C-143.51 179.5 -144.55 179.83 -145.61 180.17 C-154.09 182.69 -163.71 184.42 -172.1 180.78 C-177.94 177.25 -181.31 172.3 -183.23 165.84 C-184.11 160.13 -182.49 155.15 -179.91 150.09 C-174.09 143.33 -167.56 141.08 -159.23 138.65 C-157.45 138.12 -157.45 138.12 -155.63 137.57 C-147.43 135.09 -139.19 132.7 -130.97 130.28 C-126.44 128.95 -121.91 127.61 -117.37 126.27 C-113.45 125.11 -109.52 123.96 -105.59 122.82 C-102.5 121.92 -99.42 121.01 -96.34 120.1 C-95.2 119.77 -94.06 119.44 -92.89 119.11 C-91.32 118.64 -91.32 118.64 -89.71 118.16 C-88.34 117.76 -88.34 117.76 -86.93 117.35 C-82.93 115.72 -81.3 113.19 -79.47 109.4 C-79.08 108.6 -78.68 107.79 -78.27 106.96 C-77.86 106.12 -77.46 105.27 -77.04 104.4 C-73.79 97.71 -70.4 91.1 -66.92 84.53 C-61.47 74.24 -56.28 63.83 -51.1 53.4 C-45.88 42.88 -40.64 32.38 -35.19 21.97 C-34.79 21.19 -34.39 20.42 -33.97 19.62 C-29.52 11.17 -25.59 4.46 -16.12 1.04 C-10.84 -0.29 -5.41 -0.02 0 0 Z " fill="#FEFEFE" transform="translate(193.60107421875,152.595947265625)"/>
<path d="M0 0 C9.94 8.54 17.9 19.73 19.15 33.09 C20.16 50.12 17.25 63.22 6.3 76.7 C-4.21 88.02 -18.81 93.76 -33.95 94.93 C-49.98 95.42 -64.82 90.44 -77.02 79.96 C-88.28 68.97 -93.4 56.4 -93.64 40.77 C-93.5 25.8 -88.15 14.53 -78.05 3.5 C-56.9 -17.03 -23.09 -17.2 0 0 Z " fill="#FEFEFE" transform="translate(287.078125,48.29296875)"/>
</svg>
